HIERARCHY
ROOT hip
{
	OFFSET 0.000000 0.000000 0.000000
	CHANNELS 6 Xposition Yposition Zposition Xrotation Zrotation Yrotation 
	JOINT abdomen
	{
		OFFSET 0.000000 3.422050 0.000000
		CHANNELS 3 Xrotation Zrotation Yrotation 
		JOINT chest
		{
			OFFSET 0.000000 8.486693 -0.684411
			CHANNELS 3 Xrotation Zrotation Yrotation 
			JOINT neck
			{
				OFFSET 0.000000 10.266162 -0.273764
				CHANNELS 3 Xrotation Zrotation Yrotation 
				JOINT head
				{
					OFFSET 0.000000 3.148285 0.000000
					CHANNELS 3 Xrotation Zrotation Yrotation 
					End Site
					{
						OFFSET 0.000000 3.148289 0.000000
					}
				}
			}
			JOINT lCollar
			{
				OFFSET 3.422053 6.707223 -0.821293
				CHANNELS 3 Yrotation Zrotation Xrotation 
				JOINT lShldr
				{
					OFFSET 3.285171 0.000000 0.000000
					CHANNELS 3 Zrotation Yrotation Xrotation 
					JOINT lForeArm
					{
						OFFSET 10.129278 0.000000 0.000000
						CHANNELS 3 Yrotation Zrotation Xrotation 
						JOINT lHand
						{
							OFFSET 8.486692 0.000000 0.000000
							CHANNELS 3 Zrotation Yrotation Xrotation 
							End Site
							{
								OFFSET 4.106464 0.000000 0.000000
							}
						}
					}
				}
			}
			JOINT rCollar
			{
				OFFSET -3.558935 6.707223 -0.821293
				CHANNELS 3 Yrotation Zrotation Xrotation 
				JOINT rShldr
				{
					OFFSET -3.148289 0.000000 0.000000
					CHANNELS 3 Zrotation Yrotation Xrotation 
					JOINT rForeArm
					{
						OFFSET -10.266159 0.000000 0.000000
						CHANNELS 3 Yrotation Zrotation Xrotation 
						JOINT rHand
						{
							OFFSET -8.349810 0.000000 0.000000
							CHANNELS 3 Zrotation Yrotation Xrotation 
							End Site
							{
								OFFSET -4.106464 0.000000 0.000000
							}
						}
					}
				}
			}
		}
	}
	JOINT lThigh
	{
		OFFSET 5.338403 -1.642589 1.368821
		CHANNELS 3 Xrotation Zrotation Yrotation 
		JOINT lShin
		{
			OFFSET -2.053232 -20.121670 0.000000
			CHANNELS 3 Xrotation Zrotation Yrotation 
			JOINT lFoot
			{
				OFFSET 0.000000 -19.300380 -1.231939
				CHANNELS 3 Xrotation Yrotation Zrotation 
				End Site
				{
					OFFSET 0.000000 -2.463878 4.653993
				}
			}
		}
	}
	JOINT rThigh
	{
		OFFSET -5.338403 -1.642589 1.368821
		CHANNELS 3 Xrotation Zrotation Yrotation 
		JOINT rShin
		{
			OFFSET 2.053232 -20.121670 0.000000
			CHANNELS 3 Xrotation Zrotation Yrotation 
			JOINT rFoot
			{
				OFFSET 0.000000 -19.300380 -1.231939
				CHANNELS 3 Xrotation Yrotation Zrotation 
				End Site
				{
					OFFSET 0.000000 -2.463878 4.653993
				}
			}
		}
	}
}
MOTION
Frames: 18
Frame Time: 0.049897
0.000000 43.528500 0.000000 0.000000 0.000000 0.000000 0.000000 0.000000 0.000000 0.000000 0.000000 0.000000 0.000000 0.000000 0.000000 0.000000 0.000000 0.000000 0.000000 0.000000 0.000000 0.000000 0.000000 0.000000 0.000000 0.000000 0.000000 0.000000 0.000000 0.000000 0.000000 0.000000 0.000000 0.000000 0.000000 0.000000 0.000000 0.000000 0.000000 0.000000 0.000000 0.000000 0.000000 0.000000 0.000000 0.000000 0.000000 0.000000 0.000000 0.000000 0.000000 0.000000 0.000000 0.000000 0.000000 0.000000 0.000000 0.000000 0.000000 0.000000 
-0.309380 40.587845 1.054315 0.000000 0.000000 0.000000 -6.769362 -0.791626 -0.501452 -3.239787 -0.684104 16.896179 0.000000 13.997003 0.000000 -0.326982 0.000000 0.000000 -31.587135 42.678925 16.911566 -66.730415 -15.811747 2.750376 -128.256210 19.108643 -25.740683 -30.002340 0.000000 0.000000 15.596374 15.288783 -3.913268 59.578716 16.425596 -0.602694 59.903881 -4.721714 4.311022 57.053341 -6.405698 -9.653776 -22.745024 11.112266 9.681611 46.043598 2.285559 -0.455780 -20.070169 6.726419 -16.168903 -19.289722 -21.365059 -6.883320 32.367825 -0.469809 0.633823 -7.403364 -5.063858 25.787203 
-0.309380 40.504742 1.099704 -0.886494 0.000000 0.000000 -6.769362 -0.791626 -0.501452 -1.427575 -0.684060 16.896246 -0.457313 13.997010 -0.000024 -0.233989 0.000000 0.000000 -30.982626 43.330235 16.058538 -66.323509 -15.843563 2.567608 -128.064560 19.347116 -25.803188 -29.671848 -0.495320 -0.307578 15.527978 14.340742 -5.047796 59.949936 16.506346 -0.458483 60.106533 -4.547764 4.327024 57.207138 -6.585844 -10.139096 -21.919065 11.160139 9.724752 46.406162 2.352133 -0.444222 -20.363867 6.680011 -16.227121 -18.534758 -21.446535 -6.959199 32.838451 -0.559101 0.635832 -7.744425 -4.933703 25.856083 
-0.309380 40.421635 1.145093 -1.773841 0.000000 0.000000 -6.769363 -0.791626 -0.501452 0.392054 -0.684017 16.896320 -0.915108 13.997023 -0.000048 -0.140981 0.000000 0.000000 -30.357527 43.975460 15.185881 -65.916351 -15.874133 2.384546 -127.872330 19.585415 -25.866640 -29.338488 -0.989121 -0.618213 15.440312 13.391584 -6.181981 60.321583 16.586210 -0.313647 60.309090 -4.373743 4.342404 57.362564 -6.764747 -10.625244 -21.092255 11.207438 9.768637 46.768810 2.418643 -0.432239 -20.657614 6.633895 -16.285580 -17.778751 -21.527124 -7.036320 33.309216 -0.648431 0.637108 -8.085639 -4.803937 25.925734 
-0.309380 40.338531 1.190482 -2.661936 0.000000 0.000000 -6.769362 -0.791626 -0.501452 2.218223 -0.683977 16.896397 -1.373372 13.997032 -0.000073 -0.047960 0.000000 0.000000 -29.711254 44.614193 14.293014 -65.508972 -15.903461 2.201205 -127.679512 19.823536 -25.931046 -29.002220 -1.481334 -0.931926 15.333476 12.442006 -7.316091 60.693634 16.665180 -0.168193 60.511585 -4.199656 4.357166 57.519638 -6.942386 -11.112204 -20.264675 11.254141 9.813252 47.131542 2.485088 -0.419833 -20.951408 6.588070 -16.344271 -17.021782 -21.606808 -7.114663 33.780098 -0.737790 0.637649 -8.426996 -4.674568 25.996161 
-0.309380 40.255428 1.235871 -3.550673 0.000000 0.000000 -6.769362 -0.791626 -0.501451 4.050035 -0.683940 16.896475 -1.832091 13.997041 -0.000097 0.045075 0.000000 0.000000 -29.043238 45.246048 13.379358 -65.101372 -15.931531 2.017600 -127.486115 20.061466 -25.996397 -28.663042 -1.971891 -1.248736 15.207577 11.492705 -8.450383 61.066105 16.743256 -0.022127 60.714005 -4.025506 4.371309 57.678318 -7.118735 -11.599959 -19.436411 11.300234 9.858583 47.494354 2.551459 -0.407004 -21.245251 6.542542 -16.403200 -16.263899 -21.685560 -7.194216 34.251099 -0.827170 0.637457 -8.768497 -4.545602 26.067356 
-0.309380 40.172325 1.281260 -4.439947 0.000000 0.000000 -6.769362 -0.791626 -0.501452 5.886579 -0.683904 16.896551 -2.291250 13.997051 -0.000122 0.138124 0.000000 0.000000 -28.352882 45.870552 12.444318 -64.693565 -15.958349 1.833742 -127.292122 20.299212 -26.062719 -28.320919 -2.460725 -1.568661 15.062726 10.544385 -9.585110 61.438965 16.820427 0.124540 60.916321 -3.851299 4.384831 57.838596 -7.293773 -12.088497 -18.607552 11.345705 9.904622 47.857239 2.617755 -0.393752 -21.539137 6.497312 -16.462362 -15.505174 -21.763361 -7.274964 34.722179 -0.916561 0.636529 -9.110136 -4.417049 26.139317 
-0.309380 40.089218 1.326650 -5.329648 0.000000 0.000000 -6.769362 -0.791626 -0.501452 7.726922 -0.683871 16.896627 -2.750835 13.997061 -0.000147 0.231186 0.000000 0.000000 -27.639626 46.487316 11.487328 -64.285614 -15.983915 1.649652 -127.097511 20.536757 -26.130005 -27.975842 -2.947767 -1.891722 14.899040 9.597754 -10.720513 61.812229 16.896690 0.271801 61.118595 -3.677037 4.397738 58.000473 -7.467478 -12.577805 -17.778181 11.390536 9.951354 48.220184 2.683972 -0.380078 -21.833061 6.452383 -16.521761 -14.745667 -21.840185 -7.356882 35.193344 -1.005953 0.634866 -9.451905 -4.288913 26.212034 
-0.309380 40.006115 1.372039 -6.219674 0.000000 0.000000 -6.769362 -0.791626 -0.501452 9.570127 -0.683841 16.896708 -3.210833 13.997068 -0.000171 0.324261 0.000000 0.000000 -26.902899 47.095875 10.507812 -63.877453 -16.008219 1.465336 -126.902290 20.774090 -26.198257 -27.627781 -3.432947 -2.217935 14.716648 8.653520 -11.856829 62.185860 16.972038 0.419647 61.320778 -3.502724 4.410022 58.163937 -7.639827 -13.067863 -16.948391 11.434714 9.998767 48.583195 2.750104 -0.365983 -22.127018 6.407753 -16.581383 -13.985449 -21.916008 -7.439954 35.664577 -1.095339 0.632467 -9.793804 -4.161204 26.285515 
-0.309380 39.923012 1.417428 -7.109912 0.000000 0.000000 -6.769363 -0.791626 -0.501452 11.415243 -0.683813 16.896790 -3.671229 13.997081 -0.000196 0.417350 0.000000 0.000000 -26.142143 47.695774 9.505206 -63.469173 -16.031258 1.280817 -126.706459 21.011215 -26.267492 -27.276712 -3.916197 -2.547319 14.515682 7.712389 -12.994277 62.559849 17.046461 0.568068 61.522915 -3.328367 4.421691 58.328934 -7.810794 -13.558651 -16.118265 11.478226 10.046845 48.946255 2.816149 -0.351468 -22.421007 6.363428 -16.641233 -13.224584 -21.990814 -7.524164 36.135857 -1.184707 0.629333 -10.135828 -4.033930 26.359751 
-0.309380 39.839905 1.462817 -8.000257 0.000000 0.000000 -6.769362 -0.791626 -0.501452 13.261320 -0.683788 16.896873 -4.132009 13.997088 -0.000221 0.510452 0.000000 0.000000 -25.356792 48.286526 8.478953 -63.060760 -16.053038 1.096106 -126.510010 21.248117 -26.337700 -26.922636 -4.397449 -2.879891 14.296279 6.775068 -14.133071 62.934204 17.119957 0.717057 61.724968 -3.153968 4.432742 58.495502 -7.980363 -14.050162 -15.287881 11.521047 10.095571 49.309349 2.882102 -0.336532 -22.715021 6.319407 -16.701309 -12.463141 -22.064587 -7.609490 36.607182 -1.274050 0.625463 -10.477971 -3.907098 26.434734 
-0.309380 39.756802 1.508206 -8.890606 0.000000 0.000000 -6.769362 -0.791626 -0.501451 15.107395 -0.683766 16.896959 -4.593156 13.997097 -0.000247 0.603567 0.000000 0.000000 -24.546333 48.867657 7.428527 -62.652214 -16.073545 0.911216 -126.312920 21.484793 -26.408894 -26.565512 -4.876632 -3.215668 14.058591 5.842261 -15.273415 63.308903 17.192522 0.866602 61.926941 -2.979530 4.443173 58.663593 -8.148508 -14.542373 -14.457340 11.563177 10.144936 49.672493 2.947959 -0.321178 -23.009052 6.275693 -16.761600 -11.701184 -22.137300 -7.695910 37.078529 -1.363359 0.620858 -10.820232 -3.780714 26.510468 
-0.309380 39.673698 1.553595 -9.780845 0.000000 0.000000 -6.769362 -0.791626 -0.501452 16.952513 -0.683746 16.897043 -5.054660 13.997106 -0.000272 0.696694 0.000000 0.000000 -23.710253 49.438671 6.353416 -62.243591 -16.092791 0.726168 -126.115196 21.721241 -26.481089 -26.205338 -5.353679 -3.554665 13.802776 4.914669 -16.415491 63.683933 17.264153 1.016699 62.128868 -2.805060 4.452989 58.833202 -8.315210 -15.035265 -13.626727 11.604598 10.194919 50.035664 3.013717 -0.305405 -23.303101 6.232288 -16.822115 -10.938783 -22.208937 -7.783405 37.549877 -1.452623 0.615519 -11.162598 -3.654785 26.586931 
-0.309380 39.590595 1.598984 -10.670868 0.000000 0.000000 -6.769362 -0.791626 -0.501452 18.795719 -0.683729 16.897123 -5.516502 13.997113 -0.000297 0.789835 0.000000 0.000000 -22.848080 49.999069 5.253141 -61.834869 -16.110765 0.540970 -125.916817 21.957441 -26.554270 -25.842089 -5.828520 -3.896899 13.528994 3.992981 -17.559475 64.059303 17.334835 1.167335 62.330734 -2.630558 4.462186 59.004330 -8.480448 -15.528831 -12.796118 11.645292 10.245506 50.398872 3.079370 -0.289215 -23.597166 6.189194 -16.882845 -10.176000 -22.279472 -7.871951 38.021225 -1.541834 0.609445 -11.505073 -3.529322 26.664146 
-0.309380 39.507488 1.644374 -11.560573 0.000000 0.000000 -6.769362 -0.791626 -0.501452 20.636057 -0.683714 16.897207 -5.978671 13.997122 -0.000322 0.882988 0.000000 0.000000 -21.959364 50.548317 4.127250 -61.426105 -16.127466 0.355644 -125.717804 22.193398 -26.628454 -25.475744 -6.301084 -4.242383 13.237423 3.077888 -18.705517 64.434982 17.404573 1.318501 62.532520 -2.456032 4.470767 59.176918 -8.644197 -16.023037 -11.965614 11.685254 10.296682 50.762089 3.144916 -0.272608 -23.891237 6.146410 -16.943785 -9.412910 -22.348902 -7.961528 38.492561 -1.630983 0.602637 -11.847651 -3.404329 26.742094 
-0.309380 39.424385 1.689763 -12.449843 0.000000 0.000000 -6.769363 -0.791626 -0.501452 22.472607 -0.683703 16.897295 -6.441150 13.997128 -0.000348 0.976154 0.000000 0.000000 -21.043703 51.085911 2.975336 -61.017269 -16.142897 0.170200 -125.518143 22.429098 -26.703646 -25.106302 -6.771306 -4.591134 12.928254 2.170066 -19.853777 64.810951 17.473354 1.470187 62.734272 -2.281484 4.478731 59.350998 -8.806442 -16.517879 -11.135298 11.724470 10.348433 51.125324 3.210350 -0.255586 -24.185320 6.103944 -17.004944 -8.649577 -22.417191 -8.052110 38.963860 -1.720060 0.595097 -12.190323 -3.279814 26.820768 
-0.309380 39.341282 1.735152 -13.338582 0.000000 0.000000 -6.769362 -0.791626 -0.501452 24.304415 -0.683693 16.897375 -6.903924 13.997137 -0.000373 1.069332 0.000000 0.000000 -20.100740 51.611290 1.797042 -60.608444 -16.157059 -0.015344 -125.317802 22.664543 -26.779856 -24.733730 -7.239111 -4.943162 12.601677 1.270184 -21.004370 65.187218 17.541178 1.622386 62.935951 -2.106920 4.486080 59.526505 -8.967157 -17.013321 -10.305256 11.762924 10.400737 51.488541 3.275667 -0.238150 -24.479399 6.061791 -17.066307 -7.886072 -22.484331 -8.143674 39.435093 -1.809057 0.586826 -12.533088 -3.155785 26.900169 
-0.309380 39.258179 1.780541 -14.226675 0.000000 0.000000 -6.769362 -0.791626 -0.501451 26.130581 -0.683687 16.897459 -7.366982 13.997149 -0.000399 1.162522 0.000000 0.000000 -19.130173 52.123932 0.592059 -60.199566 -16.169941 -0.200975 -125.116798 22.899725 -26.857084 -24.358025 -7.704435 -5.298482 12.257908 0.378897 -22.157419 65.563782 17.608040 1.775088 63.137573 -1.932340 4.492811 59.703457 -9.126329 -17.509365 -9.475575 11.800613 10.453579 51.851791 3.340866 -0.220300 -24.773472 6.019956 -17.127880 -7.122464 -22.550310 -8.236198 39.906277 -1.897964 0.577824 -12.875941 -3.032250 26.980297 
